<svg xmlns="http://www.w3.org/2000/svg" viewBox="0 0 840 1188" preserveAspectRatio="xMidYMid slice">
  <defs>
    <linearGradient id="sky" x1="0" y1="0" x2="0" y2="1">
      <stop offset="0%" stop-color="#F0FAFF"/>
      <stop offset="45%" stop-color="#FFFFFF"/>
      <stop offset="100%" stop-color="#FFF7EA"/>
    </linearGradient>
  </defs>
  <rect width="840" height="1188" fill="url(#sky)"/>
  <circle cx="760" cy="90" r="150" fill="#FFE9A8" opacity="0.13"/>
  <circle cx="760" cy="90" r="80" fill="#FFDD7A" opacity="0.15"/>
  <g fill="#BDE7F5" opacity="0.20">
    <ellipse cx="150" cy="140" rx="90" ry="26"/>
    <ellipse cx="215" cy="118" rx="60" ry="20"/>
  </g>
  <g fill="none" stroke-linecap="round" opacity="0.16">
    <path d="M52 330 q68 -100 136 0" stroke="#F5C2DE" stroke-width="10"/>
    <path d="M68 330 q52 -74 104 0" stroke="#BDE7F5" stroke-width="10"/>
    <path d="M84 330 q36 -50 72 0" stroke="#CDEFD9" stroke-width="10"/>
  </g>
  <g fill="#F8E08A" opacity="0.22">
    <path d="M120 520 l5 12 12 5 -12 5 -5 12 -5 -12 -12 -5 12 -5 z"/>
    <path d="M700 420 l4 10 10 4 -10 4 -4 10 -4 -10 -10 -4 10 -4 z"/>
    <path d="M640 760 l5 12 12 5 -12 5 -5 12 -5 -12 -12 -5 12 -5 z"/>
    <path d="M90 880 l4 10 10 4 -10 4 -4 10 -4 -10 -10 -4 10 -4 z"/>
  </g>
  <g fill="none" stroke="#BDE7F5" stroke-width="2" opacity="0.18">
    <circle cx="780" cy="620" r="16"/>
    <circle cx="750" cy="680" r="9"/>
    <circle cx="60" cy="640" r="12"/>
  </g>
  <path d="M0 1090 q210 -55 420 0 t420 0 V1188 H0 Z" fill="#DFF3E6" opacity="0.30"/>
  <path d="M0 1120 q210 -42 420 0 t420 0 V1188 H0 Z" fill="#BDE7F5" opacity="0.22"/>
</svg>
